<?xml version="1.0" encoding="UTF-8" standalone="no"?>
<!-- Created with Inkscape (http://www.inkscape.org/) -->

<svg
   width="600mm"
   height="600mm"
   viewBox="0 0 600 600"
   version="1.1"
   id="svg1"
   xml:space="preserve"
   inkscape:version="1.4.3 (0d15f75042, 2025-12-25)"
   sodipodi:docname="favicon.svg"
   xmlns:inkscape="http://www.inkscape.org/namespaces/inkscape"
   xmlns:sodipodi="http://sodipodi.sourceforge.net/DTD/sodipodi-0.dtd"
   xmlns="http://www.w3.org/2000/svg"
   xmlns:svg="http://www.w3.org/2000/svg"><sodipodi:namedview
     id="namedview1"
     pagecolor="#ffffff"
     bordercolor="#000000"
     borderopacity="0.25"
     inkscape:showpageshadow="2"
     inkscape:pageopacity="0.0"
     inkscape:pagecheckerboard="0"
     inkscape:deskcolor="#d1d1d1"
     inkscape:document-units="mm"
     inkscape:zoom="0.26834941"
     inkscape:cx="907.39906"
     inkscape:cy="952.11688"
     inkscape:window-width="1876"
     inkscape:window-height="987"
     inkscape:window-x="0"
     inkscape:window-y="0"
     inkscape:window-maximized="1"
     inkscape:current-layer="layer1" /><defs
     id="defs1" />  <style>
    :root {
      --main-color: #172333;
      --accent-color: #9c2231;
    }
    @media (prefers-color-scheme: dark) {
      :root {
        --main-color: #f1f5f9;
      }
    }
    .main-color { fill: var(--main-color); }
    .accent-color { fill: var(--accent-color); }
  </style>
  <g
     inkscape:label="Layer 1"
     inkscape:groupmode="layer"
     id="layer1"
     transform="translate(160.49275,130.9005)"><g
       id="g6824"
       transform="translate(28.117637,68.081947)"><path
         class="main-color"
         d="m 85.989612,238.6542 c 3.41719,-0.88402 6.427601,-0.27363 9.877778,-0.35795 5.75589,-0.14065 11.50696,-0.34761 17.28611,-0.34761 20.0291,0 40.32252,0.95963 60.325,-0.0141 6.26758,-0.30523 11.52428,-6.10212 17.28611,-8.11173 6.0272,-2.10211 14.49395,-0.69358 20.81389,-0.69358 12.1673,0 24.21928,-0.90245 36.33611,-1.73237 3.11885,-0.2136 10.49514,0.8797 12.34722,-2.14819 -14.68661,-0.30282 -29.39958,-1.39871 -44.09722,-1.75872 -30.31202,-0.74251 -60.68406,-0.35795 -91.01666,-0.35795 h -14.81667 c -2.02511,-1.7e-4 -4.41127,-0.63097 -6.34483,0.0384 -3.81898,1.32205 -7.076833,5.05877 -10.230559,7.46466 -2.114083,1.61282 -8.026556,5.26996 -7.766279,8.01915"
         id="path6812" /><path
         class="main-color"
         d="m -72.056211,202.9202 c -2.601564,0.69513 -5.004733,2.42397 -7.406955,3.59315 -5.320692,2.58951 -10.682035,5.15024 -15.875,7.98564 -2.722788,1.48665 -6.796824,2.56255 -9.053284,4.68327 -1.74489,1.63995 3.97026,10.31883 6.236229,9.9714 2.608971,-0.39998 5.430332,-3.00482 7.755944,-4.20474 5.599658,-2.88915 11.116462,-5.83289 16.580555,-8.96371 2.328196,-1.33403 5.908598,-2.76598 7.483695,-5.02898 1.348712,-1.93778 -3.315215,-8.67897 -5.721184,-8.03603"
         id="path6811" /><path
         class="main-color"
         d="m 304.35906,197.73197 v -0.70555 c -5.43826,-1.60817 -12.33973,-0.92501 -17.99167,-1.0635 -11.04567,-0.27062 -22.0909,-0.70039 -33.16111,-0.70039 -31.85189,0 -63.74004,-0.70556 -95.60278,-0.70556 -6.4431,0 -15.38864,-1.55348 -21.51944,0.60918 -3.9362,1.38846 -7.64467,5.44299 -10.93611,7.9487 -2.18497,1.66329 -4.14325,3.58496 -6.34837,5.22871 -0.5724,0.42667 -1.955,1.1138 -1.79326,2.01297 0.17183,0.95515 1.8241,0.77609 2.49718,0.78074 2.72731,0.0188 5.40441,-0.31893 8.11389,-0.35114 11.27562,-0.1341 22.60052,-0.70693 33.86667,-0.70693 h 30.69166 c 5.86261,0 12.21149,0.53295 17.99167,-0.5166 6.68452,-1.21388 11.43565,-8.30294 18.34444,-8.6415 17.74018,-0.8692 35.54805,-0.17992 53.26945,-1.39372 7.26424,-0.49747 15.56572,0.4222 22.57778,-1.79541"
         id="path6810" /><path
         class="main-color"
         d="m -97.454833,194.0204 c -4.199997,0.85016 -11.304137,2.9695 -14.703147,5.61723 -1.66868,1.29983 0.22462,4.09527 2.00857,4.02404 3.47511,-0.13866 8.05291,-3.02669 11.283466,-4.34056 1.237479,-0.50324 3.430023,-0.90305 4.373248,-1.84959 2.176826,-2.18462 -1.036199,-3.84093 -2.962137,-3.45112"
         id="path6809" /><path
         class="main-color"
         d="m -103.09928,174.96316 c -3.56343,0.40179 -7.11929,1.84356 -10.58333,2.7541 -1.50495,0.39558 -3.53712,0.29619 -4.88661,1.07685 -1.9963,1.15488 -0.82277,4.95904 1.36538,5.0903 1.41025,0.0846 2.90146,-0.87393 4.22679,-1.27124 3.67789,-1.1026 8.7685,-1.70902 11.9419,-3.95755 2.20159,-1.55994 0.0208,-3.92758 -2.06413,-3.69246"
         id="path6808" /><path
         class="main-color"
         d="m 148.78406,183.62087 c 22.59715,-0.4656 45.44795,-0.56878 68.08611,-1.39828 8.03827,-0.29455 16.31011,0.69169 24.34166,-0.0727 5.82885,-0.55474 10.4035,-3.3817 15.52223,-6.02857 2.71103,-1.40181 5.32319,-3.27973 8.46666,-3.4227 18.33566,-0.83372 36.70086,-0.96162 55.03334,-1.76389 8.21948,-0.35967 19.15085,0.41694 26.81111,-2.83609 -2.95779,-2.32725 -9.11728,-0.91545 -12.7,-1.0722 -11.26426,-0.49291 -22.57442,-0.33891 -33.86667,-0.33891 H 194.64517 c -6.88985,0 -15.56667,-1.20449 -22.225,0.62993 -5.55074,1.52928 -10.63036,5.61913 -15.16945,8.98981 -2.72283,2.02193 -6.65764,4.41162 -8.46666,7.31359"
         id="path6807" /><path
         class="main-color"
         d="m -109.44928,155.90249 c -3.96311,0.56913 -10.14481,0.53494 -13.73766,2.21356 -1.98756,0.92863 -1.5124,4.36107 0.70039,4.62479 1.91659,0.22841 4.11293,-0.55208 5.98172,-0.90021 3.35251,-0.62459 8.26848,-0.43348 11.23635,-2.21821 3.97581,-2.39089 -2.34732,-3.98322 -4.1808,-3.71993"
         id="path6806" /><path
         class="main-color"
         d="m -110.50761,136.14556 c -3.86927,0.50643 -8.09055,0.88806 -11.99444,0.90839 -1.35268,0.007 -3.77376,-0.30481 -4.5434,1.15686 -1.24626,2.36678 1.82293,3.41779 3.48506,3.42925 4.0374,0.0277 7.67555,-0.63691 11.64167,-1.20639 1.36645,-0.1962 3.3004,0.118 4.50554,-0.62037 3.32512,-2.03726 -1.10467,-3.92819 -3.09443,-3.66774"
         id="path6805" /><path
         class="main-color"
         d="m -126.3023,109.44692 c -1.98997,0.92716 -2.49468,10.90631 -0.35252,11.87215 2.14277,0.96609 6.05342,0.2129 8.3861,0.2129 h 19.755554 c 2.327937,0 7.067226,0.90253 9.073951,-0.36259 2.081139,-1.31207 1.860007,-9.64911 -0.645697,-10.42056 -3.570669,-1.09941 -8.248248,-0.46302 -11.956028,-0.50711 -5.05349,-0.06 -10.10645,-0.70418 -15.16945,-0.70418 -2.48146,0 -6.82732,-1.14575 -9.09191,-0.0906"
         id="path6804" /><path
         class="main-color"
         d="m -123.80103,88.734836 c -1.4891,0.970053 -0.87833,3.751623 0.61409,4.362266 3.63238,1.486214 9.11275,0.911314 13.03211,1.472692 1.28709,0.184313 3.35983,0.520554 4.4331,-0.414617 0.97565,-0.850163 1.01329,-2.531973 -0.25205,-3.103342 -3.82095,-1.725476 -9.24306,-1.437724 -13.35327,-2.072311 -1.27831,-0.197404 -3.27625,-1.024916 -4.47398,-0.244688"
         id="path6803" /><path
         class="main-color"
         d="m -128.1465,298.9792 c 10.04909,1.43402 21.60958,0.0703 31.750259,-0.33917 9.885443,-0.39912 20.055968,0.33917 29.985853,0.33917 9.572025,0 19.408333,-0.75517 28.927778,-0.33892 8.292431,0.36251 16.71866,-0.55268 25.047222,0.0177 3.7456799,0.25657 11.0756804,1.34298 14.4638887,-0.2322 4.4732842,-2.07955 8.2939383,-7.02567 11.9944443,-10.23297 9.906674,-8.58621 19.520859,-17.50246 29.340457,-26.18479 24.622141,-21.77042 49.080768,-43.71413 73.963578,-65.18465 12.77277,-11.02112 25.58482,-23.58978 39.92374,-32.52472 11.28579,-7.03247 26.28057,-7.97212 39.15834,-9.70733 18.98213,-2.55772 37.92404,-6.59305 56.79722,-9.9118 27.11833,-4.76853 54.23993,-9.88294 81.49167,-14.17321 11.00294,-1.73219 22.17478,-2.98422 33.16111,-5.09374 3.5953,-0.6904 7.89547,-0.58791 11.28889,-1.98765 5.93848,-2.44946 10.3352,-8.09899 14.81666,-12.47107 2.22295,-2.1686 6.91474,-4.94733 7.40834,-8.11906 -35.5999,1.52799 -71.3233,0.17019 -106.89167,-0.70039 -17.99503,-0.44045 -35.98618,0.0772 -53.975,-0.36311 -29.95261,-0.73312 -59.96723,-1.40594 -89.95833,-1.40594 -1.59569,0 -3.82561,0.38981 -5.28625,-0.3626 -2.31415,-1.192003 -3.68074,-4.67844 -5.20864,-6.692959 -2.50131,-3.298076 -5.53204,-6.112116 -8.90789,-8.497414 C 116.48732,74.455346 95.952053,73.501141 80.345167,82.374673 62.16402,92.711768 51.450893,117.15369 60.396643,137.0542 c 2.161066,4.80745 4.773998,9.59252 8.719494,13.1886 0.924147,0.84232 5.205367,2.94676 5.212516,4.1329 0.0056,0.92682 -1.255565,1.62109 -1.894286,2.09867 -2.331727,1.74374 -4.840273,3.29696 -7.258644,4.92046 -9.927473,6.66436 -19.680108,13.53776 -29.430288,20.46214 -40.2977988,28.61876 -81.235825,56.29071 -121.205823,85.36844 -10.179741,7.40566 -20.392942,14.85404 -30.691662,22.08392 -3.33357,2.34025 -10.6348,5.75572 -11.99445,9.66987 m 501.65,-186.61945 c -1.5248,1.24816 -3.42908,0.96256 -5.29167,1.20802 -4.33212,0.57086 -8.74003,0.79479 -13.05277,1.41249 -17.20223,2.46385 -34.57231,3.81751 -51.85834,5.94658 -9.98483,1.22981 -20.00377,1.46279 -29.98611,2.42888 -4.03326,0.39033 -7.94792,1.61015 -11.99444,1.99695 -26.43301,2.52646 -52.92158,4.89066 -79.375,7.40833 -15.15394,1.44229 -30.37653,2.40106 -45.50834,4.19251 -4.14867,0.49119 -8.63108,-0.15804 -12.7,0.85525 -4.66069,1.16065 -8.47881,5.05421 -13.40555,6.32795 -14.220753,3.67669 -27.623208,-8.1337 -28.543479,-21.89918 -0.989001,-14.79307 16.08739,-25.624966 29.601809,-21.21998 5.59303,1.82306 10.49428,5.84546 13.26457,10.98942 1.05299,1.95518 2.36643,8.85571 4.39499,9.41287 4.27201,1.17331 9.72077,-0.57206 14.09044,-0.59316 13.3885,-0.0646 26.86985,-0.8189 40.21667,-1.73263 15.25221,-1.04421 30.58599,-0.78806 45.86111,-1.4565 27.27473,-1.19364 54.56265,-2.68666 81.84444,-3.88055 12.44584,-0.54467 24.96377,-0.57775 37.39445,-1.42877 5.52076,-0.37793 11.03705,-0.32126 16.58055,-0.32126 2.72421,0 5.84392,-0.42237 8.46667,0.35278"
         id="path6802" /><path
         class="main-color"
         d="m -118.76279,67.250704 c -1.06746,0.671191 -1.48647,3.767815 -0.40992,4.530042 3.13904,2.222603 9.23711,1.788521 12.89843,2.831782 1.38239,0.393947 3.48398,1.200616 4.84036,0.34296 1.38545,-0.876002 1.10476,-2.952533 -0.30136,-3.614078 -3.86802,-1.819957 -8.8312,-2.508374 -13.00566,-3.363619 -1.01334,-0.207567 -3.06713,-1.327395 -4.02185,-0.727087"
         id="path6801" /><path
         class="main-color"
         d="m -111.90322,47.006289 c -1.79412,0.340893 -2.56466,3.431057 -0.9617,4.450547 3.51723,2.236987 8.97021,3.024363 12.940643,4.259516 1.274298,0.396444 2.85564,1.475621 4.226529,1.029136 1.660278,-0.540708 2.125021,-2.596052 0.631788,-3.603397 -3.38485,-2.283324 -8.43652,-3.419344 -12.26665,-4.826752 -1.41537,-0.520123 -2.98961,-1.609462 -4.57061,-1.30905"
         id="path6800" /><path
         class="main-color"
         d="m -103.67633,27.709707 c -1.28593,0.758437 -2.38427,3.164578 -1.07332,4.312829 3.06932,2.688466 9.801899,4.032312 13.644817,5.480027 1.42993,0.538727 3.065059,1.672938 4.532196,0.560689 1.586811,-1.202941 0.40088,-2.783895 -1.006054,-3.421066 -3.842832,-1.740204 -7.817869,-3.316593 -11.640031,-5.113383 -1.194588,-0.56155 -3.077158,-2.633259 -4.457608,-1.819096"
         id="path6799" /><path
         class="main-color"
         d="m -89.693463,3.7660346 c -2.008146,0.7083116 -7.405965,8.1591924 -5.828973,10.0312564 1.761262,2.090829 5.560686,3.635179 7.945381,4.936478 5.086899,2.775885 10.13349,5.64453 15.169445,8.507491 2.168601,1.232827 4.688129,2.304252 6.688911,3.771346 0.854556,0.626577 1.648134,1.773793 2.836089,1.2361 2.030496,-0.919065 7.356355,-6.727755 5.777855,-9.103579 -1.30849,-1.969475 -5.157523,-3.437171 -7.188967,-4.616341 -5.237837,-3.040383 -10.308673,-6.359905 -15.522222,-9.4365476 -1.966288,-1.1603943 -7.650782,-6.1115994 -9.877519,-5.3262038"
         id="path6798" /><path
         class="main-color"
         d="m -76.962156,-12.535296 c -1.286528,0.261913 -3.332785,2.366781 -2.48443,3.7412015 0.620246,1.0048482 2.534083,1.5733751 3.511198,2.2102871 2.837768,1.8496718 5.528,3.9733148 8.466666,5.65589941 1.107383,0.63406983 2.778944,2.09771869 4.152762,1.58147109 2.069167,-0.77755805 0.298517,-3.0564026 -0.631788,-3.9028626 -2.884406,-2.6243014 -6.002131,-5.0381937 -9.165418,-7.3147125 -1.001748,-0.720973 -2.500579,-2.245858 -3.84899,-1.971284"
         id="path6797" /><path
         class="main-color"
         d="m -62.469673,-28.734738 c -2.032348,0.835608 -2.490976,2.967003 -1.067592,4.509372 2.895775,3.137879 6.49478,5.618864 9.826618,8.248334 1.165046,0.919409 2.807581,2.930742 4.505798,2.180573 2.034716,-0.898826 -0.0419,-3.370768 -0.890945,-4.311451 -2.68528,-2.975185 -5.7096,-5.702236 -8.553483,-8.526525 -0.939348,-0.932846 -2.296974,-2.726621 -3.820396,-2.100303"
         id="path6796" /><path
         class="main-color"
         d="m -46.301796,-43.272955 c -2.684419,0.664215 -2.431764,2.832386 -1.053166,4.5837 2.450625,3.113247 5.736816,5.558403 8.360515,8.526783 1.065438,1.205439 2.427155,3.237357 4.318556,2.553591 1.361329,-0.492132 1.911856,-1.92064 1.191142,-3.158463 -2.14328,-3.680912 -5.873845,-6.808112 -8.684698,-9.978202 -0.986762,-1.112852 -2.429094,-2.948916 -4.132349,-2.527409"
         id="path6795" /><path
         class="accent-color"
         d="m 96.572945,-50.121115 c -5.823417,0.764897 -11.818917,0.607456 -17.638889,1.363482 -13.83981,1.797823 -27.82005,5.343516 -40.922222,10.147271 -56.052866,20.551114 -100.473368,68.424677 -114.568416,126.628446 -8.500988,35.103796 -3.600685,74.778636 11.733952,107.244446 3.789002,8.0219 8.215261,15.38752 13.424891,22.57778 1.060228,1.4633 4.123564,6.61914 6.167884,6.37807 1.807771,-0.21325 4.443355,-2.93711 5.983356,-3.96737 5.467366,-3.65766 10.90476,-7.39455 16.227777,-11.25874 18.2416519,-13.24261 36.864029,-26.05052 55.446013,-38.80935 5.738625,-3.94024 11.532974,-7.79504 17.22621,-11.80496 1.401723,-0.98728 5.2629,-2.7969 5.73238,-4.52298 0.454408,-1.67053 -2.430127,-5.08445 -3.175301,-6.57023 -2.738377,-5.45987 -5.402298,-11.17916 -6.286567,-17.28611 -3.922888,-27.09266 12.667228,-53.81532 38.654488,-62.759046 17.682469,-6.085589 37.700629,-3.402549 52.916669,7.697376 3.8964,2.842376 7.30704,6.33243 10.52321,9.906114 1.25815,1.39802 2.50941,4.015948 4.32015,4.717283 2.02744,0.785224 5.23362,0.221606 7.38164,0.221606 h 16.58055 c 18.36253,0 36.67752,0.352778 55.03334,0.352778 h 33.16111 c 2.6982,0 5.41801,-0.09965 8.11389,0.01387 0.99003,0.04169 2.45799,0.524085 3.26078,-0.280861 0.91088,-0.913381 0.14392,-2.550663 -0.0349,-3.613561 C 275.23008,82.65898 273.88193,79.211903 273.0626,75.670862 269.40064,59.84461 260.93096,43.952471 251.9694,30.515306 226.38966,-7.8394586 186.8465,-34.985261 142.08128,-45.292211 c -11.12284,-2.560998 -22.08169,-4.139369 -33.51389,-4.639683 -3.97168,-0.173805 -8.01278,-0.712187 -11.994445,-0.189221 m 2.116667,9.728088 c 1.647878,-0.305925 5.513958,-1.139896 6.841268,0.212907 1.03586,1.055663 0.20895,4.049623 0.21455,5.431537 0.0172,4.238415 0.34571,8.467442 0.35252,12.7 0.002,1.306467 0.43752,3.638452 -0.3626,4.757591 -0.95774,1.339712 -5.45591,1.026897 -6.330364,-0.283617 -0.958598,-1.436605 -0.362596,-4.57302 -0.362596,-6.237863 v -6.35 c 0,-3.439411 -0.205931,-6.810006 -0.352778,-10.230555 m -77.965267,19.329311 c 2.066971,-0.288096 3.451253,3.257424 4.342241,4.659578 2.310195,3.635695 4.322217,7.50626 6.379413,11.2888887 0.643414,1.1831319 2.115719,2.8155043 2.081268,4.21292115 -0.03152,1.27950846 -2.854649,2.69682075 -3.976674,2.78604875 -1.903544,0.1513258 -3.647581,-3.544142 -4.531678,-4.8823032 -2.280137,-3.4511244 -4.461743,-7.0195544 -6.559591,-10.5833334 -0.668564,-1.135762 -2.039712,-2.515523 -2.156673,-3.865311 -0.133411,-1.539441 3.106486,-3.43321 4.421694,-3.616489 m 161.963155,0.677478 c 1.55115,-0.442522 5.16067,1.924344 4.93183,3.643447 -0.62443,4.690928 -5.79276,10.5663662 -8.33524,14.4497639 -0.84103,1.2845039 -2.1531,3.8219028 -3.72182,4.2858711 -1.42972,0.4227993 -4.90539,-1.59404571 -4.67379,-3.2427823 0.20429,-1.4542609 1.61842,-2.9638156 2.33603,-4.2180888 l 6.1029,-10.5833329 c 0.74276,-1.290275 1.79619,-3.888738 3.36009,-4.334878 M -41.701776,33.60237 c 1.449826,-0.334691 3.706665,1.571997 4.924721,2.258777 4.116502,2.321133 10.916388,5.278748 13.896611,8.976282 1.206645,1.497067 -1.081114,4.738385 -2.640666,5.182458 -1.604596,0.456905 -3.642887,-1.483286 -4.905945,-2.255504 -3.982702,-2.43508 -11.454856,-4.75785 -14.245599,-8.526267 -1.186792,-1.602573 1.27882,-5.245072 2.970878,-5.635746 M 244.1331,33.524253 c 2.1581,-0.610988 4.40335,3.299109 3.2104,4.999005 -2.59209,3.693573 -8.67974,6.093082 -12.48167,8.327658 -1.51524,0.890557 -3.53225,2.437663 -5.28512,2.731271 -2.37832,0.398339 -4.0373,-3.603656 -2.42345,-5.19262 2.85021,-2.806289 7.21265,-4.481897 10.5308,-6.702433 1.89437,-1.267709 4.25262,-3.541042 6.44904,-4.162881 M -68.827553,113.631 c 1.641329,-0.71667 3.895584,-0.008 5.592165,0.10835 4.339528,0.29705 11.485087,-1.53961 15.44165,0.24443 1.616568,0.72889 1.42459,5.51723 -0.07243,6.27696 -1.158069,0.58774 -3.167077,0.21291 -4.433106,0.21291 -3.664247,0 -7.283535,-0.35278 -10.936111,-0.35278 -1.630349,0 -4.074342,0.44985 -5.592165,-0.21291 -1.705323,-0.74457 -1.70528,-5.53239 0,-6.27696 m 33.807838,72.30204 c 2.043846,-0.37216 4.398612,3.76239 3.062862,5.33438 -2.675375,3.14848 -7.450535,4.28863 -10.817427,6.45525 -1.792182,1.15333 -4.483318,3.24218 -6.701141,3.31883 -1.824437,0.063 -4.824641,-3.82801 -3.315216,-5.415 2.231862,-2.34645 6.154577,-3.64077 8.958024,-5.13982 2.709137,-1.44858 5.736816,-3.99356 8.812898,-4.55364"
         id="path6794" /><path
         class="main-color"
         d="m -20.196499,-38.981919 c 1.102861,-0.379391 2.730798,-1.099158 2.68993,-2.506221 -0.04005,-1.379933 -1.314304,-2.7522 -2.043157,-3.843779 -2.092594,-3.134003 -4.864087,-9.035796 -8.161,-10.988649 -1.366756,-0.809597 -3.94584,0.962043 -3.75481,2.52715 0.176045,1.442031 1.953283,3.13874 2.835874,4.228166 1.138044,1.404737 2.315922,2.780709 3.393548,4.233333 1.615965,2.178334 3.400094,4.196299 5.039615,6.35"
         id="path6793" /><path
         class="accent-color"
         d="m 284.95628,-13.581916 c -0.60315,-2.154304 -2.51251,-3.681343 -3.98236,-5.305533 -1.57983,-1.745716 -4.85526,-6.763498 -7.33487,-7.075968 -1.30689,-0.164675 -3.00042,2.04165 -3.84705,2.83006 -2.66702,2.483569 -5.24843,4.897117 -8.11905,7.156325 -0.94198,0.741384 -2.22269,2.188496 -3.52072,2.172218 -3.08991,-0.03867 0.15641,-3.666098 0.87979,-4.463896 3.09482,-3.413056 7.26665,-8.526956 11.46037,-10.48265 l -3.16113,-4.174509 -9.53887,-7.819936 c -2.89371,4.517984 -7.15236,8.238171 -10.93611,11.994186 -0.96497,0.957823 -4.32618,3.692798 -4.52841,0.383009 -0.0668,-1.093646 1.36857,-2.4213 1.99506,-3.206351 2.24077,-2.807752 4.82907,-5.3821 7.20464,-8.080988 0.87023,-0.988742 2.97088,-3.00309 2.3238,-4.503084 -0.85352,-1.978346 -4.56527,-3.797012 -6.28954,-4.991944 -1.43781,-0.996321 -2.92256,-2.651948 -4.58068,-3.237614 -1.50361,-0.531148 -2.36523,1.111302 -3.14339,2.118045 -2.35774,3.050115 -4.56002,6.229938 -7.06452,9.166796 -0.93766,1.099588 -3.31986,3.852908 -4.67869,1.646239 -0.79978,-1.298801 1.21879,-3.474379 1.93399,-4.464672 2.0289,-2.809303 4.15177,-5.579332 6.06991,-8.465547 0.70108,-1.054888 1.87396,-2.473234 1.3659,-3.833444 -0.98832,-2.646005 -7.35175,-4.628055 -9.65807,-6.107465 -0.87859,-0.563532 -2.2655,-1.813498 -3.39523,-1.29105 -2.23449,1.033357 -4.15229,6.360077 -5.48278,8.409995 -4.19647,6.465325 -8.66519,12.799047 -12.63842,19.402778 -1.18511,1.969647 -3.85214,4.449599 -4.32541,6.687533 -0.27509,1.300954 1.32912,2.081613 2.20599,2.691309 2.66693,1.854236 5.47529,3.517701 8.11363,5.410867 10.77651,7.732861 20.88839,17.0429733 29.78819,26.8695914 13.83214,15.2726246 25.61299,32.6787116 33.35412,51.8268106 2.74324,6.785632 5.58295,14.031616 7.19629,21.166667 0.66395,2.936513 0.83431,8.978177 2.91532,11.175373 1.54108,1.627118 8.10183,0.466293 10.35441,0.466293 h 26.10556 c 2.34903,0 7.79814,0.913468 9.76564,-0.366385 1.39431,-0.907008 0.77437,-3.587034 0.55147,-4.925281 -0.69083,-4.147034 -1.78758,-8.231884 -2.62404,-12.347222 -0.27311,-1.343588 -0.21524,-3.675745 -1.49466,-4.521602 -1.08744,-0.718905 -2.91266,-0.151929 -4.08175,0.09534 -3.55026,0.750772 -7.04978,1.694384 -10.58333,2.511302 -1.3075,0.302221 -6.81767,1.833997 -6.37773,-1.190108 0.2005,-1.378383 2.87381,-1.682671 3.90828,-2.091345 3.6835,-1.455209 7.76818,-2.795437 11.64167,-3.590651 1.32507,-0.272076 3.73181,-0.52064 4.01526,-2.187205 0.49919,-2.935566 -2.70767,-8.739001 -3.6903,-11.603512 -0.33796,-0.985125 -0.71296,-2.794489 -1.83408,-3.165182 -3.24502,-1.072975 -7.86464,2.087814 -10.8381,3.076471 -1.70085,0.565512 -9.74962,4.673875 -10.16855,1.146527 -0.22754,-1.915989 3.22642,-2.539638 4.5241,-3.024793 3.6053,-1.347808 7.13445,-2.785188 10.58334,-4.505496 1.02939,-0.513406 2.91636,-1.033184 3.50271,-2.092207 1.16134,-2.097374 -2.48038,-6.782618 -3.29342,-8.721431 -0.68506,-1.633578 -1.24101,-4.348228 -2.75797,-5.42482 -1.30251,-0.924405 -2.97657,0.348558 -4.1541,0.964196 -3.50254,1.831241 -7.01921,3.628633 -10.58333,5.341793 -1.31603,0.632606 -4.1926,2.529389 -5.30476,0.856537 -1.65296,-2.486153 5.51034,-5.225607 7.06865,-6.048382 2.52404,-1.332735 8.27951,-3.459307 9.85245,-5.822125 0.70702,-1.062037 -0.62502,-2.722315 -1.1144,-3.625533 -1.44332,-2.664006 -3.31005,-8.053858 -6.03073,-9.6126773 -1.56261,-0.8952942 -5.92814,3.0669963 -7.29344,3.9671133 -5.87681,3.874355 -11.86249,7.570856 -17.99166,11.036019 -2.43043,1.374076 -5.10365,3.812084 -7.49515,1.27391 -0.92553,-0.982283 -3.03057,-2.995252 -2.58649,-4.516175 0.59384,-2.033812 4.01861,-3.536994 5.64522,-4.658458 5.52136,-3.806745 11.13842,-7.5774018 16.78364,-11.2069822 1.4559,-0.9360324 7.44106,-3.3215888 6.94858,-5.35204196 -0.74164,-3.05803904 -4.59033,-6.02736684 -6.51114,-8.46098224 -0.68316,-0.8655803 -1.62858,-2.2441356 -2.90688,-1.9963466 -2.95624,0.5731776 -6.33002,4.4087747 -8.81945,6.0690523 -2.14104,1.427906 -4.34185,2.9098138 -6.70278,3.95651995 -0.7624,0.33804999 -2.22286,0.86153225 -2.55712,-0.33538005 -0.42495,-1.5213542 2.31519,-2.97484 3.26268,-3.7294881 2.75943,-2.1978848 5.654,-4.2093899 8.46529,-6.3355311 1.46278,-1.106306 2.37436,-2.523618 4.23471,-2.906885"
         id="path6792" /><path
         class="main-color"
         d="m -4.6756751,-71.838997 c -1.9886383,0.392999 -8.4746769,3.181115 -8.8191429,5.372282 -0.279957,1.780855 1.971154,4.800654 2.795264,6.318132 3.1577748,5.814546 6.9706342,11.278898 10.39958079,16.933334 1.44349501,2.380388 4.93535771,10.501598 8.32567611,9.691312 1.7813728,-0.425728 5.9631591,-2.534126 6.4379361,-4.460882 0.415909,-1.687752 -2.052502,-5.146628 -2.818691,-6.641541 -3.098605,-6.045626 -6.2852753,-12.043107 -9.5666857,-17.991667 -1.15686303,-2.097202 -3.8511861,-9.794665 -6.7539374,-9.22097"
         id="path6791" /><path
         class="main-color"
         d="m 205.47481,-73.895719 c -2.2475,1.61463 -3.57748,6.713027 -4.78231,9.161025 -2.78132,5.651163 -5.54506,11.31378 -8.39484,16.933334 -1.38062,2.722486 -3.58738,5.770965 -4.15875,8.814018 -0.40945,2.180832 5.80955,5.680273 7.56431,4.710996 2.26774,-1.252551 3.50935,-4.390947 4.87929,-6.469459 4.04041,-6.130375 7.36019,-12.681569 10.99571,-19.05 1.30268,-2.282031 4.31731,-6.197813 4.52979,-8.805319 0.19042,-2.337239 -8.749,-6.64826 -10.6332,-5.294595"
         id="path6790" /><path
         class="main-color"
         d="m 14.375703,-80.039444 c -1.087229,0.195939 -2.34077,1.02948 -2.195344,2.266097 0.473055,4.022925 4.205342,9.120891 6.074521,12.685875 0.724375,1.38157 1.423299,4.054619 3.492121,3.640261 2.316138,-0.463882 0.892883,-3.373093 0.408589,-4.698594 -1.36822,-3.744905 -2.929752,-7.318158 -4.595069,-10.936111 -0.634629,-1.378727 -1.304528,-3.29644 -3.184818,-2.957528"
         id="path6789" /><path
         class="main-color"
         d="m 186.07341,-82.010728 c -1.05326,0.781262 -1.51249,3.049426 -2.0116,4.223256 -1.65743,3.898212 -3.4941,8.17547 -4.26597,12.346964 -0.3266,1.764923 1.02448,3.111352 2.78846,2.106848 1.31508,-0.748791 1.74683,-2.566682 2.27919,-3.870478 1.48234,-3.630442 4.94535,-9.136652 5.02734,-13.037533 0.0349,-1.660881 -2.52129,-2.730497 -3.81742,-1.769057"
         id="path6788" /><path
         class="main-color"
         d="m 35.888343,-87.701164 c -6.115647,0.924663 -0.03079,11.80238 1.164184,15.205359 0.557546,1.587759 0.550656,4.569919 3.069408,4.221879 1.991007,-0.275091 1.820733,-2.381681 1.553221,-3.869101 -0.688933,-3.830688 -1.96224,-7.988832 -3.316292,-11.641667 -0.482571,-1.301815 -0.552765,-4.206461 -2.470521,-3.91647"
         id="path6787" /><path
         class="main-color"
         d="m 165.89729,-88.360728 c -1.10682,0.768342 -1.53031,3.012908 -1.94269,4.223256 -1.29234,3.793481 -3.17069,8.655458 -3.26673,12.684498 -0.0395,1.658038 2.48392,2.677958 3.78987,1.768195 1.13008,-0.787205 1.01854,-3.020229 1.43187,-4.222137 1.04429,-3.036507 1.73477,-6.084297 2.60302,-9.172222 0.35976,-1.279423 1.46124,-2.816969 1.26056,-4.182432 -0.21247,-1.445562 -2.84918,-1.811948 -3.8759,-1.099158"
         id="path6786" /><path
         class="main-color"
         d="m 56.008648,-92.781044 c -2.487746,0.483003 -1.827666,2.58942 -1.313959,4.410239 1.155873,4.096822 1.740764,8.529109 2.419103,12.698622 0.214285,1.31706 1.303753,2.530423 2.754741,2.279448 2.309808,-0.399459 1.544092,-3.162426 1.435313,-4.747514 -0.259372,-3.780304 -1.285796,-7.964028 -2.215196,-11.641667 -0.454279,-1.797651 -0.772864,-3.447076 -3.080002,-2.999128"
         id="path6785" /><path
         class="main-color"
         d="m 144.5507,-93.662472 c -0.53588,2.596052 -1.11991,5.134054 -1.50688,7.761112 -0.26123,1.773449 -0.73639,3.513825 -0.94456,5.291666 -0.15942,1.361588 -0.58205,9.980528 3.24795,6.426998 1.10906,-1.02905 1.00691,-4.273124 1.32507,-5.721442 0.99761,-4.541325 4.84208,-13.613898 -2.12158,-13.758334"
         id="path6784" /><path
         class="main-color"
         d="m 76.832873,-95.928569 c -2.049316,0.597724 -1.505507,2.72998 -1.414126,4.382764 0.208428,3.770054 0.117994,10.289122 1.611529,13.706054 0.477835,1.093129 1.88464,1.269518 2.923681,0.957392 2.027266,-0.60892 1.38088,-3.231155 1.197429,-4.785668 -0.460093,-3.898729 0.222811,-8.157211 -0.5749,-11.993066 -0.373966,-1.79834 -1.947341,-2.791389 -3.743613,-2.267476"
         id="path6783" /><path
         class="main-color"
         d="m 123.88978,-96.108231 c -1.13714,0.713479 -0.97195,3.035301 -1.11062,4.209648 -0.48894,4.140661 -0.80649,8.883007 -0.43279,13.047352 0.11843,1.319127 1.52696,3.059503 3.05606,2.389949 1.49268,-0.653621 1.09942,-3.218236 1.25755,-4.50119 0.48059,-3.899934 2.16731,-9.892505 1.19286,-13.71992 -0.34537,-1.356679 -2.78674,-2.163951 -3.96306,-1.425839"
         id="path6782" /><path
         class="main-color"
         d="m 97.13861,-97.885986 c -1.63711,1.296647 -0.565685,8.223443 -0.565685,10.220737 v 19.05 c 0,2.652637 -0.630194,6.237431 0.152962,8.781031 0.656636,2.132514 8.716783,2.805772 10.332103,1.490865 1.94096,-1.580007 0.80382,-8.288383 0.80382,-10.624674 0,-6.340095 0.22238,-12.700258 0.35769,-19.05 0.0571,-2.677614 0.96351,-5.816699 0.19491,-8.451164 -0.69186,-2.371259 -9.505538,-2.818949 -11.2758,-1.416795"
         id="path6781" /><path
         class="main-color"
         d="m 88.459056,-130.55445 c -13.797952,1.81738 -27.576137,3.03125 -41.275,5.65943 -18.218612,3.49531 -36.698363,9.49606 -53.622222,17.13126 -52.176445,23.539472 -97.861984,63.547021 -125.027854,114.2901774 -12.25817,22.8970516 -20.24308,47.3858246 -25.4267,72.6722226 -2.46001,12.000128 -2.8373,24.162 -3.37042,36.33611 -1.7154,39.17048 6.16375,79.31721 24.21101,114.3 5.7245,11.09639 12.16859,21.41179 19.66542,31.39722 1.76975,2.35731 3.44884,4.76578 5.31453,7.05392 0.65367,0.80168 1.48363,2.10969 2.6951,1.85458 1.62157,-0.34149 3.28705,-2.31665 4.57225,-3.30591 3.25389,-2.50476 6.589862,-4.896 9.877775,-7.35373 1.106479,-0.82699 4.287249,-2.12562 3.941276,-3.8759 -0.529856,-2.68063 -5.038323,-6.59616 -6.718841,-8.83685 -4.98884,-6.65179 -9.79148,-13.45327 -13.69791,-20.81388 -12.62856,-23.79511 -22.17074,-50.6175 -24.0624,-77.61112 -1.64207,-23.43164 -1.71226,-46.32973 2.94908,-69.497218 13.03732,-64.796993 57.353609,-118.824875 113.08324,-152.548139 16.0151719,-9.69114 33.928204,-16.975192 51.858333,-22.000897 15.717731,-4.405586 31.287108,-7.985126 47.625,-9.541106 48.792887,-4.64683 97.519367,6.129859 140.758337,28.866542 19.30149,10.149423 38.24934,23.27429 53.62084,38.806933 22.38847,22.623081 41.66145,48.192235 53.46487,77.963889 4.82933,12.180996 7.84198,24.551042 11.52875,37.041667 0.80297,2.720505 1.35306,5.643583 1.6229,8.466666 0.13169,1.377436 -0.29774,3.290325 0.67446,4.433149 1.19459,1.404221 4.10018,0.858518 5.7354,0.858518 5.3113,0 12.86218,1.398278 17.93939,-0.112138 2.1835,-0.649573 0.37663,-5.781301 0.0166,-7.296195 -1.69852,-7.14754 -2.62628,-14.629254 -4.32101,-21.872223 C 354.72013,30.410575 339.24485,1.0845445 320.28744,-24.870805 279.8483,-80.237537 218.00074,-113.78941 151.60626,-126.21001 c -15.65383,-2.92842 -31.33289,-4.49413 -47.27222,-4.49413 -5.196672,0 -10.721572,-0.52908 -15.875004,0.14969"
         id="path6780" /></g></g></svg>
